<svg xmlns="http://www.w3.org/2000/svg" width="900" height="675" viewBox="0 0 900 675" role="img" aria-label="30 day saving challenge tracker">
  <rect width="900" height="675" fill="#F3F2EE"/>
  <rect x="30" y="30" width="840" height="615" rx="28" fill="#FFFFFF" stroke="#E4DFD7" stroke-width="3"/>

  <path d="M30 58 Q30 30 58 30 L842 30 Q870 30 870 58 L870 118 L30 118 Z" fill="#4E8B6E"/>
  <rect x="30" y="96" width="840" height="22" fill="#D6A443"/>
  <text x="450" y="86" text-anchor="middle" font-family="Plus Jakarta Sans, Arial, sans-serif" font-size="36" font-weight="800" fill="#FFFFFF">30-Day Saving Challenge</text>

  <g>
    <rect x="70" y="150" width="560" height="420" rx="20" fill="#F3F2EE" stroke="#E4DFD7" stroke-width="2"/>

    <g stroke="#E4DFD7" stroke-width="2">
      <rect x="90" y="170" width="80" height="66" rx="12" fill="#4E8B6E"/>
      <rect x="180" y="170" width="80" height="66" rx="12" fill="#4E8B6E"/>
      <rect x="270" y="170" width="80" height="66" rx="12" fill="#4E8B6E"/>
      <rect x="360" y="170" width="80" height="66" rx="12" fill="#4E8B6E"/>
      <rect x="450" y="170" width="80" height="66" rx="12" fill="#4E8B6E"/>
      <rect x="540" y="170" width="70" height="66" rx="12" fill="#FFFFFF"/>

      <rect x="90" y="246" width="80" height="66" rx="12" fill="#4E8B6E"/>
      <rect x="180" y="246" width="80" height="66" rx="12" fill="#4E8B6E"/>
      <rect x="270" y="246" width="80" height="66" rx="12" fill="#4E8B6E"/>
      <rect x="360" y="246" width="80" height="66" rx="12" fill="#FFFFFF"/>
      <rect x="450" y="246" width="80" height="66" rx="12" fill="#4E8B6E"/>
      <rect x="540" y="246" width="70" height="66" rx="12" fill="#FFFFFF"/>

      <rect x="90" y="322" width="80" height="66" rx="12" fill="#4E8B6E"/>
      <rect x="180" y="322" width="80" height="66" rx="12" fill="#FFFFFF"/>
      <rect x="270" y="322" width="80" height="66" rx="12" fill="#FFFFFF"/>
      <rect x="360" y="322" width="80" height="66" rx="12" fill="#FFFFFF"/>
      <rect x="450" y="322" width="80" height="66" rx="12" fill="#FFFFFF"/>
      <rect x="540" y="322" width="70" height="66" rx="12" fill="#FFFFFF"/>

      <rect x="90" y="398" width="80" height="66" rx="12" fill="#FFFFFF"/>
      <rect x="180" y="398" width="80" height="66" rx="12" fill="#FFFFFF"/>
      <rect x="270" y="398" width="80" height="66" rx="12" fill="#FFFFFF"/>
      <rect x="360" y="398" width="80" height="66" rx="12" fill="#FFFFFF"/>
      <rect x="450" y="398" width="80" height="66" rx="12" fill="#FFFFFF"/>
      <rect x="540" y="398" width="70" height="66" rx="12" fill="#FFFFFF"/>

      <rect x="90" y="474" width="80" height="66" rx="12" fill="#FFFFFF"/>
      <rect x="180" y="474" width="80" height="66" rx="12" fill="#FFFFFF"/>
      <rect x="270" y="474" width="80" height="66" rx="12" fill="#FFFFFF"/>
      <rect x="360" y="474" width="80" height="66" rx="12" fill="#FFFFFF"/>
      <rect x="450" y="474" width="80" height="66" rx="12" fill="#FFFFFF"/>
      <rect x="540" y="474" width="70" height="66" rx="12" fill="#FFFFFF"/>
    </g>

    <g stroke="#FFFFFF" stroke-width="4" stroke-linecap="round" stroke-linejoin="round" fill="none">
      <path d="M118 205 L128 215 L148 192"/>
      <path d="M208 205 L218 215 L238 192"/>
      <path d="M298 205 L308 215 L328 192"/>
      <path d="M388 205 L398 215 L418 192"/>
      <path d="M478 205 L488 215 L508 192"/>
      <path d="M118 281 L128 291 L148 268"/>
      <path d="M208 281 L218 291 L238 268"/>
      <path d="M298 281 L308 291 L328 268"/>
      <path d="M478 281 L488 291 L508 268"/>
      <path d="M118 357 L128 367 L148 344"/>
    </g>

    <g font-family="Plus Jakarta Sans, Arial, sans-serif" font-size="13" font-weight="700" text-anchor="middle">
      <g fill="#FFFFFF">
        <text x="130" y="230">1</text>
        <text x="220" y="230">2</text>
        <text x="310" y="230">3</text>
        <text x="400" y="230">4</text>
        <text x="490" y="230">5</text>
        <text x="130" y="306">7</text>
        <text x="220" y="306">8</text>
        <text x="310" y="306">9</text>
        <text x="490" y="306">11</text>
        <text x="130" y="382">13</text>
      </g>
      <g fill="#6E687A">
        <text x="575" y="230">6</text>
        <text x="400" y="306">10</text>
        <text x="575" y="306">12</text>
        <text x="220" y="382">14</text>
        <text x="310" y="382">15</text>
        <text x="400" y="382">16</text>
        <text x="490" y="382">17</text>
        <text x="575" y="382">18</text>
        <text x="130" y="458">19</text>
        <text x="220" y="458">20</text>
        <text x="310" y="458">21</text>
        <text x="400" y="458">22</text>
        <text x="490" y="458">23</text>
        <text x="575" y="458">24</text>
        <text x="130" y="534">25</text>
        <text x="220" y="534">26</text>
        <text x="310" y="534">27</text>
        <text x="400" y="534">28</text>
        <text x="490" y="534">29</text>
        <text x="575" y="534">30</text>
      </g>
    </g>
  </g>

  <g font-family="Plus Jakarta Sans, Arial, sans-serif">
    <rect x="660" y="150" width="180" height="90" rx="18" fill="#4E8B6E"/>
    <text x="750" y="188" text-anchor="middle" font-size="30" font-weight="800" fill="#FFFFFF">12 day</text>
    <text x="750" y="220" text-anchor="middle" font-size="22" font-weight="700" fill="#FFFFFF">streak</text>

    <rect x="660" y="262" width="180" height="94" rx="18" fill="#EEECF6" stroke="#E4DFD7" stroke-width="2"/>
    <text x="750" y="296" text-anchor="middle" font-size="17" font-weight="700" fill="#575091">Tip 1</text>
    <text x="750" y="322" text-anchor="middle" font-size="14" font-weight="600" fill="#6E687A">Save Rs 100 daily</text>
    <text x="750" y="342" text-anchor="middle" font-size="14" font-weight="600" fill="#6E687A">small counts too</text>

    <rect x="660" y="372" width="180" height="94" rx="18" fill="#F7F0E4" stroke="#E4DFD7" stroke-width="2"/>
    <text x="750" y="406" text-anchor="middle" font-size="17" font-weight="700" fill="#C67A3D">Tip 2</text>
    <text x="750" y="432" text-anchor="middle" font-size="14" font-weight="600" fill="#6E687A">Skip one treat</text>
    <text x="750" y="452" text-anchor="middle" font-size="14" font-weight="600" fill="#6E687A">each day</text>

    <rect x="660" y="482" width="180" height="94" rx="18" fill="#EEECF6" stroke="#E4DFD7" stroke-width="2"/>
    <text x="750" y="516" text-anchor="middle" font-size="17" font-weight="700" fill="#575091">Tip 3</text>
    <text x="750" y="542" text-anchor="middle" font-size="14" font-weight="600" fill="#6E687A">Mark every win</text>
    <text x="750" y="562" text-anchor="middle" font-size="14" font-weight="600" fill="#6E687A">on the grid</text>
  </g>

  <rect x="70" y="590" width="560" height="36" rx="12" fill="#EEECF6"/>
  <text x="350" y="614" text-anchor="middle" font-family="Plus Jakarta Sans, Arial, sans-serif" font-size="16" font-weight="600" fill="#575091">Tick a square each day you save something</text>
</svg>
